<svg width="115.000000" height="32.000000" viewBox="0 0 115 32" fill="none" xmlns="http://www.w3.org/2000/svg" xmlns:xlink="http://www.w3.org/1999/xlink">
	<desc>
			Created with Pixso.
	</desc>
	<defs>
		<clipPath id="clip1_414">
			<rect id="hahnemuehle-logo-vector 1" width="115.882355" height="32.592594" transform="translate(-0.941177 -0.851807)" fill="white" fill-opacity="0"/>
		</clipPath>
	</defs>
	<rect id="hahnemuehle-logo-vector 1" width="115.882355" height="32.592594" transform="translate(-0.941177 -0.851807)" fill="#FFFFFF" fill-opacity="0"/>
	<g clip-path="url(#clip1_414)">
		<path id="Vector" d="M35.86 28.12L35.86 16.64L34.42 16.64L34.42 21.58L29.46 21.58L29.46 16.64L28.01 16.64L28.01 28.12L29.46 28.12L29.46 22.93L34.44 22.93L34.44 28.12L35.86 28.12ZM44.46 22.27C44.46 20.48 43.69 19.55 41.34 19.55C40.45 19.55 39.41 19.69 38.66 19.92L38.79 21.09C39.45 20.95 40.47 20.81 41.24 20.81C42.57 20.81 43.02 21.19 43.02 22.23L43.02 23.54L40.86 23.54C39.2 23.54 38.35 24.17 38.35 25.91C38.35 27.39 39.01 28.32 40.53 28.32C41.51 28.32 42.46 28.04 43.19 27.53L43.29 28.16L44.48 28.16L44.46 22.27ZM43.04 26.38C42.4 26.8 41.63 27.07 40.91 27.07C39.91 27.07 39.76 26.72 39.76 25.87C39.76 25.02 40.09 24.74 40.95 24.74L43.04 24.74L43.04 26.38ZM53.29 28.12L53.29 21.68C53.29 20.4 52.83 19.55 51.52 19.55C50.57 19.55 49.26 19.96 48.36 20.44L48.36 16.11L46.95 16.31L46.95 28.14L48.36 28.14L48.36 21.82C49.24 21.37 50.5 20.95 51.09 20.95C51.62 20.95 51.89 21.17 51.89 21.72L51.89 28.14L53.29 28.14L53.29 28.12ZM62.26 28.12L62.26 21.68C62.26 20.4 61.8 19.55 60.48 19.55C59.52 19.55 58.09 19.98 57.19 20.46L57.05 19.75L55.9 19.75L55.9 28.14L57.3 28.14L57.3 21.8C58.19 21.35 59.44 20.95 60.04 20.95C60.56 20.95 60.83 21.17 60.83 21.72L60.83 28.14L62.26 28.14L62.26 28.12ZM65.86 25.2L65.86 24.51L70.74 24.51L70.74 22.75C70.74 21.01 70.09 19.57 67.66 19.57C65.23 19.57 64.46 20.97 64.46 22.71L64.46 25.22C64.46 27.11 65.29 28.3 67.7 28.3C68.72 28.3 69.82 28.12 70.59 27.82L70.42 26.66C69.51 26.9 68.64 27.05 67.83 27.05C66.23 27.05 65.86 26.52 65.86 25.2ZM65.86 22.59C65.86 21.4 66.33 20.77 67.66 20.77C68.99 20.77 69.37 21.44 69.37 22.59L69.37 23.28L65.86 23.28L65.86 22.59ZM84.28 28.12L84.28 21.68C84.28 20.4 83.82 19.55 82.5 19.55C81.48 19.55 80.09 19.96 79.11 20.46C78.88 19.88 78.4 19.55 77.55 19.55C76.59 19.55 75.16 19.98 74.25 20.46L74.12 19.75L72.96 19.75L72.96 28.14L74.37 28.14L74.37 21.8C75.25 21.35 76.51 20.95 77.11 20.95C77.63 20.95 77.9 21.17 77.9 21.72L77.9 28.14L79.3 28.14L79.3 21.8C80.19 21.35 81.37 20.95 82.04 20.95C82.56 20.95 82.83 21.17 82.83 21.72L82.83 28.14L84.28 28.14L84.28 28.12ZM86.8 19.75L86.8 26.19C86.8 27.47 87.27 28.32 88.58 28.32C89.54 28.32 90.97 27.88 91.88 27.41L92.01 28.12L93.17 28.12L93.17 19.73L91.76 19.73L91.76 26.07C90.87 26.52 89.62 26.92 89.02 26.92C88.5 26.92 88.23 26.7 88.23 26.15L88.23 19.73L86.8 19.75ZM87.94 18.46L89.25 18.46L89.25 17.02L87.94 17.02L87.94 18.46ZM90.85 18.46L92.16 18.46L92.16 17.02L90.85 17.02L90.85 18.46ZM102.21 28.12L102.21 21.68C102.21 20.4 101.75 19.55 100.44 19.55C99.49 19.55 98.18 19.96 97.27 20.44L97.27 16.11L95.87 16.31L95.87 28.14L97.27 28.14L97.27 21.82C98.16 21.37 99.41 20.95 100.01 20.95C100.53 20.95 100.8 21.17 100.8 21.72L100.8 28.14L102.21 28.14L102.21 28.12ZM106.24 28.12L106.24 16.09L104.83 16.29L104.83 28.12L106.24 28.12ZM109.9 25.2L109.9 24.51L114.78 24.51L114.78 22.75C114.78 21.01 114.13 19.57 111.7 19.57C109.27 19.57 108.5 20.97 108.5 22.71L108.5 25.22C108.5 27.11 109.33 28.3 111.74 28.3C112.76 28.3 113.86 28.12 114.63 27.82L114.45 26.66C113.55 26.9 112.68 27.05 111.87 27.05C110.27 27.05 109.9 26.52 109.9 25.2ZM109.9 22.59C109.9 21.4 110.37 20.77 111.7 20.77C113.03 20.77 113.41 21.44 113.41 22.59L113.41 23.28L109.9 23.28L109.9 22.59Z" fill="#6F7072" fill-opacity="1.000000" fill-rule="nonzero"/>
		<path id="Vector" d="M21.73 12.2C21.59 10.66 20.94 9.3 19.86 8.41C18.89 7.6 17.66 7.2 16.47 7.36C15 7.52 13.8 8.66 13.05 9.59C12.2 10.62 11.63 11.75 11.32 12.56C10.56 11.88 10.08 11.09 9.85 10.13C9.66 9.3 9.45 7.66 9.29 6.47C9.18 5.68 9.12 5.05 9.06 4.83C8.91 4.1 8.42 2.86 8.12 2.2C8.79 2.07 9.31 1.89 9.81 1.39C10.31 0.88 11.12 0.09 11.14 0.09L11.63 -0.38L10.95 -0.44C10.82 -0.46 7.38 -0.72 6.81 -0.7C6.4 -0.68 5.9 -0.46 5.49 -0.07C5.17 0.23 4.74 0.74 4.43 1.57C4.12 1.63 1.33 2.18 1.33 2.18L1.33 2.8L1.56 2.86C2.43 3.05 3.53 3.53 4.18 4.02L4.14 4.04C3.59 4.42 2.83 4.93 2.2 5.52C1.39 6.27 1 6.95 1.06 7.54C1.1 7.95 1.27 8.27 1.56 8.49C1.79 8.64 2.08 8.72 2.41 8.72C2.02 9.41 1.81 9.95 1.66 10.46C1.46 11.17 1.39 11.88 1.48 12.77C1.6 14.14 2.27 15.5 3.05 16.68L-0.95 16.68L-0.95 26.15C-0.95 26.99 -0.77 27.8 -0.41 28.52C-0.08 29.19 0.38 29.76 0.96 30.25C2 31.12 3.39 31.64 4.68 31.64C5.98 31.64 7.36 31.12 8.41 30.25C8.98 29.78 9.45 29.19 9.77 28.52C10.1 27.86 10.28 27.15 10.31 26.4C10.39 25.14 10.82 23.26 11.47 21.8C12.2 20.14 13.19 19.27 14.44 19.15C15.12 19.09 15.79 19.19 16.37 19.47C16.85 19.69 17.31 20.02 17.68 20.44C18.35 21.17 18.68 22 18.72 22.18L18.72 22.16L18.95 22.93L19.28 22.25C19.8 21.15 20.53 19.41 21.07 17.38C21.67 15.44 21.86 13.68 21.73 12.2ZM3.51 17.26L3.64 17.43C4.07 18.01 4.51 18.5 4.88 18.9L5.71 19.8C7.04 21.23 8.08 22.35 8.56 23.18C9.18 24.25 9.62 25.3 9.77 26.09C9.79 26.17 9.81 26.32 9.81 26.38C9.74 28.08 8.87 29.15 8.12 29.78C7.17 30.57 5.92 31.04 4.76 31.04C3.59 31.04 2.35 30.59 1.41 29.78C0.63 29.13 -0.29 27.96 -0.29 26.15L-0.29 17.3L3.51 17.26ZM4.51 4.52L4.65 4.42C4.74 4.56 4.8 4.67 4.8 4.81C4.84 5.29 4.41 5.8 3.89 6.47C3.55 6.91 3.16 7.42 2.78 8.01C2.41 8.11 2.1 8.07 1.89 7.91C1.75 7.79 1.66 7.64 1.64 7.42C1.6 7.02 1.93 6.51 2.58 5.9C3.22 5.38 3.97 4.89 4.51 4.52ZM20.59 17.24C20.17 18.86 19.61 20.32 19.11 21.37C18.91 20.97 18.62 20.52 18.22 20.08C17.53 19.29 16.29 18.4 14.44 18.56C13.65 18.64 12.94 18.98 12.32 19.53C11.82 20 11.37 20.69 10.99 21.54C10.55 22.57 10.24 23.74 10.01 24.82C9.77 24.21 9.47 23.56 9.06 22.87C8.54 21.98 7.48 20.83 6.13 19.39L5.3 18.48C4.41 17.51 3.66 16.53 3.12 15.58C2.52 14.53 2.18 13.54 2.1 12.69C2.02 11.88 2.08 11.25 2.25 10.6C2.41 10.01 2.7 9.39 3.22 8.51C3.59 7.85 3.99 7.34 4.38 6.89C4.99 6.12 5.46 5.5 5.4 4.79C5.34 4.2 4.86 3.65 3.91 3.13C3.51 2.92 3.05 2.72 2.62 2.56C3.53 2.38 4.7 2.15 4.7 2.15L4.88 2.11L4.93 1.95C5.36 0.55 6.3 -0.09 6.82 -0.11C7.19 -0.13 8.95 0.01 10.22 0.09C9.95 0.35 9.62 0.68 9.37 0.94C8.96 1.36 8.5 1.47 7.83 1.63L7.17 1.79L7.42 2.17C7.56 2.36 8.25 4.02 8.46 4.95C8.52 5.15 8.6 5.8 8.68 6.53C8.83 7.79 9.04 9.39 9.25 10.26C9.54 11.51 10.16 12.48 11.22 13.29L11.57 13.54L11.63 13.33C11.91 12.36 12.71 10.94 13.48 9.99C14.15 9.14 15.25 8.11 16.5 7.95C17.53 7.81 18.61 8.17 19.45 8.88C20.4 9.67 21 10.88 21.11 12.26C21.27 13.66 21.07 15.34 20.59 17.24ZM6.86 2.64C6.82 2.17 6.4 1.79 5.92 1.85C5.46 1.89 5.09 2.32 5.15 2.82C5.19 3.29 5.61 3.67 6.09 3.61C6.55 3.55 6.9 3.11 6.86 2.64ZM6.27 2.7C6.28 2.84 6.17 2.98 6.03 2.99C5.9 3.01 5.76 2.9 5.74 2.76C5.73 2.62 5.84 2.48 5.98 2.46C6.13 2.42 6.25 2.52 6.27 2.7ZM4.01 27.25L4.01 27.39C4.01 27.59 3.99 27.69 3.62 27.69C3.45 27.69 3.22 27.67 3.03 27.61L2.97 28.02C3.14 28.08 3.37 28.12 3.64 28.12C4.34 28.12 4.49 27.86 4.49 27.43L4.49 27.19C4.49 26.84 4.36 26.6 3.89 26.58C3.76 26.58 3.68 26.56 3.55 26.56L3.55 25.91L4.45 25.91L4.45 25.49L3.05 25.49L3.05 26.96C3.24 26.96 3.39 26.96 3.66 26.98C3.97 26.99 4.01 27.05 4.01 27.25ZM1.14 28.06L2.64 28.06L2.64 27.65L2.12 27.65L2.12 25.49L1.7 25.49L1.06 25.69L1.17 26.11L1.66 25.97L1.66 27.65L1.16 27.65L1.16 28.06L1.14 28.06ZM4.88 27.27L4.88 27.43C4.88 27.88 5.09 28.1 5.71 28.1C6.32 28.1 6.54 27.92 6.54 27.43L6.54 27.27C6.54 27.05 6.46 26.9 6.17 26.76C6.42 26.62 6.48 26.46 6.48 26.26L6.48 26.09C6.48 25.69 6.28 25.45 5.73 25.45C5.17 25.45 4.97 25.69 4.97 26.09L4.97 26.26C4.97 26.46 5.05 26.62 5.28 26.76C4.95 26.9 4.88 27.05 4.88 27.27ZM6.01 26.26C6.01 26.4 5.98 26.46 5.71 26.58C5.44 26.46 5.4 26.42 5.4 26.26L5.4 26.11C5.4 25.95 5.46 25.87 5.71 25.87C5.96 25.87 6.01 25.97 6.01 26.11L6.01 26.26ZM5.34 27.31C5.34 27.15 5.38 27.07 5.71 26.94C6.03 27.07 6.07 27.13 6.07 27.31L6.07 27.43C6.07 27.63 5.98 27.69 5.71 27.69C5.44 27.69 5.34 27.61 5.34 27.43L5.34 27.31ZM7.69 25.49L6.79 27.03L6.79 27.47L7.88 27.47L7.88 28.04L8.35 28.04L8.35 27.47L8.66 27.47L8.66 27.05L8.35 27.05L8.35 25.47L7.69 25.47L7.69 25.49ZM7.27 27.07L7.88 25.95L7.88 27.07L7.27 27.07Z" fill="#E1001A" fill-opacity="1.000000" fill-rule="nonzero"/>
	</g>
</svg>
