<svg width="123.000000" height="16.000000" viewBox="0 0 123 16" fill="none" xmlns="http://www.w3.org/2000/svg" xmlns:xlink="http://www.w3.org/1999/xlink">
	<desc>
			Created with Pixso.
	</desc>
	<defs>
		<clipPath id="clip1_418">
			<rect id="Frame" width="122.941185" height="15.407410" transform="translate(-0.470581 0.000000)" fill="white" fill-opacity="0"/>
		</clipPath>
	</defs>
	<g clip-path="url(#clip1_418)">
		<path id="Vector" d="M73.7 15.36L72.37 15.36L72.37 0.04L73.7 0.04L73.7 15.36ZM105.25 0.04L105.25 12.88L93.39 0.04L93.39 0L92.02 0L92.02 15.36L93.39 15.36L93.39 2.38L105.25 15.36L105.25 15.31L105.25 15.36L106.62 15.36L106.62 0.04L105.25 0.04ZM89.01 0.04L89.01 0.08L74.94 15.31L76.97 15.31L89.01 1.93L89.01 10.81L83.08 10.81L83.08 12.2L89.01 12.2L89.01 15.31L90.34 15.31L90.34 0.04L89.01 0.04Z" fill="#000000" fill-opacity="1.000000" fill-rule="evenodd"/>
		<path id="Vector" d="M72.37 15.36L72.37 0.04L73.7 0.04L73.7 15.36L72.37 15.36ZM105.25 12.88L93.39 0.04L93.39 0L92.02 0L92.02 15.36L93.39 15.36L93.39 2.38L105.25 15.36L106.62 15.36L106.62 0.04L105.25 0.04L105.25 12.88ZM105.25 15.36L105.25 15.31L105.25 15.36M89.01 0.08L74.94 15.31L76.97 15.31L89.01 1.93L89.01 10.81L83.08 10.81L83.08 12.2L89.01 12.2L89.01 15.31L90.34 15.31L90.34 0.04L89.01 0.04L89.01 0.08Z" stroke="#000000" stroke-opacity="1.000000" stroke-width="0.000000"/>
		<path id="Vector" d="M66.7 8.37L66.79 8.37C69.01 8.37 70.82 6.35 70.82 4.09C70.82 1.93 69.14 0.13 67.06 0.04L67.06 0L66.84 0L55.95 0L55.95 15.36L57.32 15.36L57.32 1.39L66.97 1.39C67.62 1.48 68.22 1.8 68.65 2.3C69.08 2.8 69.32 3.43 69.32 4.1C69.32 5.54 68.21 6.93 66.75 7.02L64.89 7.02L64.89 8.55L64.93 8.55L68.87 15.31L71.04 15.31L66.7 8.37ZM47.19 0L39.8 0.04L39.8 15.36L50.9 15.36C53.03 15.22 54.67 13.42 54.67 11.26C54.67 9.77 53.91 8.51 52.76 7.79C53.91 7.07 54.67 5.58 54.67 4.09C54.67 1.93 53.03 0.17 50.95 0.04L50.95 0L47.19 0ZM47.19 13.96L41.17 13.96L41.17 1.39L50.86 1.39C51.51 1.48 52.11 1.8 52.54 2.3C52.97 2.8 53.21 3.43 53.21 4.1C53.21 5.58 52.01 6.98 50.55 7.02L50.55 8.55C52.01 8.55 53.21 9.77 53.21 11.26C53.21 12.65 52.14 13.78 50.82 13.96L47.19 13.96Z" fill="#000000" fill-opacity="1.000000" fill-rule="evenodd"/>
		<path id="Vector" d="M-0.48 0L-0.48 15.31L0.9 15.31L12.93 2.29L12.93 10.81L7.09 10.81L7.09 12.2L12.93 12.2L12.93 15.31L14.26 15.31L14.26 0L-0.48 0ZM0.9 13.24L0.9 8.01L5.76 8.01L0.9 13.24ZM0.9 6.62L0.9 1.39L11.96 1.39L7.09 6.62L0.9 6.62Z" fill="#00ACEC" fill-opacity="1.000000" fill-rule="evenodd"/>
		<path id="Vector" d="M114.94 0C110.78 0 107.38 3.42 107.38 7.65C107.38 11.89 110.78 15.36 114.94 15.36C119.1 15.36 122.47 11.89 122.47 7.65C122.47 3.42 119.1 0 114.94 0ZM114.94 13.73C111.67 13.73 109.06 11.03 109.06 7.74C109.06 4.41 111.67 1.75 114.94 1.75C118.17 1.75 120.83 4.41 120.83 7.74C120.83 11.03 118.17 13.73 114.94 13.73Z" fill="#000000" fill-opacity="1.000000" fill-rule="evenodd"/>
		<path id="Vector" d="M34.09 1.48L34.09 0.08L19.26 0.08L19.26 15.36L20.59 15.36L20.59 8.33L29.32 8.33L22.89 15.31L24.93 15.31L36.92 1.93L36.92 10.81L31.03 10.81L31.03 12.2L36.92 12.2L37.01 15.4L38.38 15.4L38.29 0.04L36.92 0.04L36.92 0.08L30.61 6.93L20.59 6.93L20.59 1.48L34.09 1.48Z" fill="#000000" fill-opacity="1.000000" fill-rule="evenodd"/>
		<path id="Vector" d="M34.09 0.08L19.26 0.08L19.26 15.36L20.59 15.36L20.59 8.33L29.32 8.33L22.89 15.31L24.93 15.31L36.92 1.93L36.92 10.81L31.03 10.81L31.03 12.2L36.92 12.2L37.01 15.4L38.38 15.4L38.29 0.04L36.92 0.04L36.92 0.08L30.61 6.93L20.59 6.93L20.59 1.48L34.09 1.48L34.09 0.08Z" stroke="#000000" stroke-opacity="1.000000" stroke-width="0.000000"/>
	</g>
</svg>
