<svg width="133.000000" height="13.000000" viewBox="0 0 133 13" fill="none" xmlns="http://www.w3.org/2000/svg" xmlns:xlink="http://www.w3.org/1999/xlink">
	<desc>
			Created with Pixso.
	</desc>
	<defs>
		<clipPath id="clip1_425">
			<rect id="royal-talens-bv-logo-vector 1" width="132.352936" height="12.444443" transform="translate(-0.176483 -0.222168)" fill="white" fill-opacity="0"/>
		</clipPath>
	</defs>
	<rect id="royal-talens-bv-logo-vector 1" width="132.352936" height="12.444443" transform="translate(-0.176483 -0.222168)" fill="#FFFFFF" fill-opacity="0"/>
	<g clip-path="url(#clip1_425)">
		<path id="Vector" d="M7.79 11.71L6.31 12.1L3.1 7.22L1.29 7.17L1.38 11.89L-0.07 12.01L-0.07 0.07L2.75 -0.02C4.02 -0.07 5.02 0.23 5.7 0.83C6.38 1.46 6.73 2.28 6.73 3.28C6.73 3.94 6.51 4.59 6.09 5.23C5.68 5.9 5.08 6.41 4.29 6.73L4.29 6.78L7.79 11.71ZM1.36 0.92L1.27 6.36L3.47 6.27C4.27 6.04 5.21 5.07 5.21 3.64C5.21 2.05 4.22 1.02 2.57 0.97L1.36 0.92ZM14.64 12.1C11.47 12.1 8.98 9.64 8.98 5.95C8.98 2.56 11.8 -0.2 14.97 -0.2C18.16 -0.2 20.65 2.28 20.65 5.97C20.63 9.38 17.68 12.1 14.64 12.1ZM14.86 11.11C17.35 11.11 19.09 9.18 19.09 6.09C19.09 3 17.06 0.79 14.75 0.79C12.28 0.79 10.52 2.7 10.52 5.83C10.52 8.85 12.59 11.11 14.86 11.11ZM26.88 11.89L25.43 12.01L25.43 6.34L21.14 0.19L22.7 -0.02L26.31 5.49L30.03 -0.02L31.29 0.19L26.86 6.41L26.88 11.89ZM41.15 11.87L39.63 12.03L38.51 8.88L33.03 8.99L31.9 12.01L30.65 11.87L35.56 -0.02L36.22 -0.18L41.15 11.87ZM35.71 2.03L33.45 7.93L38.16 8.02L35.71 2.03ZM46.2 11.89L43.18 11.99L43.18 0.1L44.63 -0.02L44.57 5.03L44.61 10.97L49.46 10.79L49.35 11.92L46.2 11.89ZM79.69 11.89L78.24 12.01L78.24 0.97L73.83 1.13L73.94 -0.02L78.83 -0.02L83.96 -0.14L83.85 1.09L79.71 0.92L79.63 5.3L79.69 11.89ZM93.72 11.87L92.2 12.03L91.08 8.88L85.59 8.99L84.47 12.01L83.22 11.87L88.13 -0.02L88.79 -0.18L93.72 11.87ZM88.28 2.03L86.01 7.93L90.73 8.02L88.28 2.03ZM98.76 11.89L95.75 11.99L95.75 0.1L97.2 -0.02L97.13 5L97.18 10.95L102.02 10.77L101.91 11.89L98.76 11.89ZM106.01 11.89L104.09 11.99L104.09 0.07L106.82 -0.02L110.22 -0.02L110.11 1.13L105.55 0.95L105.44 5.46L109.4 5.35L109.16 6.48L105.41 6.36L105.52 10.95L110.59 10.79L110.48 11.92L106.01 11.92L106.01 11.89ZM114.18 11.89L112.88 12.01L112.99 0.1L114.05 -0.02L121.07 9.2L120.94 0.1L122.24 -0.02L122.09 11.89L121.6 11.99L114.03 2.35L114.18 11.89ZM127.97 12.01C127.3 12.01 126.64 11.87 126.01 11.59C125.37 11.32 124.88 10.97 124.53 10.63L125.23 9.82C126.12 10.51 127.06 11.04 128.34 11.04C129.75 11.04 130.72 10.37 130.72 9.06C130.72 8.37 130.48 7.84 130.03 7.52C129.59 7.19 128.98 6.87 128.23 6.55C126.67 5.9 124.99 5.23 124.99 3.05C124.99 1.29 126.51 -0.11 128.58 -0.11C129.66 -0.11 130.78 0.21 131.44 0.72L131.18 1.75C130.52 1.43 129.24 0.95 128.27 0.95C127.19 0.95 126.29 1.48 126.29 2.63C126.29 3.37 126.53 3.9 126.97 4.22C127.41 4.57 128.03 4.89 128.76 5.21C130.3 5.9 132.02 6.46 132.02 8.6C132.04 10.86 130.08 12.01 127.97 12.01Z" fill="#333333" fill-opacity="1.000000" fill-rule="nonzero"/>
		<path id="Vector" d="M55.86 -0.18L55.86 11.96L67.47 11.96L67.47 -0.18L55.86 -0.18ZM61.66 11.46C58.71 11.46 56.33 8.97 56.33 5.88C56.33 2.79 58.71 0.3 61.66 0.3C64.61 0.3 66.99 2.79 66.99 5.88C66.99 8.97 64.61 11.46 61.66 11.46ZM56.99 6.87C57.1 7.42 57.63 8.76 58.53 8.44C59.19 8.18 59.23 7.54 59.37 6.8C59.48 6.11 59.65 4.8 59.87 4.52C59.89 4.5 59.87 4.47 59.85 4.47C59.32 4.5 58.97 5.74 58.77 6.32C58.4 7.45 57.25 7.54 57.05 6.85C57.05 6.85 56.99 6.85 56.99 6.87ZM66.24 4.91C66.11 4.61 66.02 4.5 65.88 4.22C65.99 3.9 66.13 3.46 66.11 3.27C66.02 2.49 65 3.32 65.22 4.33C65.29 4.61 65.36 4.82 65.4 5C65.09 5.65 64.96 5.53 64.98 5.3C65 5.14 65.03 4.82 65.03 4.82C65.11 4.2 64.81 4.15 64.61 4.29C64.5 4.36 64.34 4.59 64.28 4.73L64.34 4.43L63.79 4.66L63.62 5.6C63.4 6.13 63.15 6.22 63 6.2C62.96 6.18 62.91 6.16 62.87 6.13C63.37 5.67 63.55 5.28 63.51 5C63.46 4.7 63.24 4.7 63.09 4.75C62.69 4.89 62.36 5.3 62.27 5.88C62.25 6.06 62.25 6.25 62.3 6.39C61.94 6.96 61.92 6.64 61.96 6.41C62.08 5.88 62.43 3.69 62.43 3.69L61.88 3.92C61.88 3.92 61.55 5.83 61.41 6.57C61.15 7.24 61.08 6.99 61.13 6.75C61.22 6.22 61.35 5.53 61.35 5.53L60.82 5.74C60.82 5.74 60.78 5.9 60.73 6.18C60.67 5.97 60.53 5.83 60.36 5.81C60.03 5.76 59.67 6.22 59.56 6.78C59.45 7.35 59.63 7.86 59.96 7.88C60.2 7.91 60.45 7.7 60.6 7.38C60.69 7.58 60.91 7.56 61.04 7.47C61.17 7.38 61.3 7.15 61.39 6.96C61.44 7.24 61.66 7.24 61.81 7.15C62.05 7.01 62.27 6.69 62.38 6.55C62.47 6.71 62.63 6.8 62.8 6.78C63.04 6.75 63.33 6.43 63.55 6.06L63.46 6.5L64.01 6.27L64.21 5.21C64.48 4.54 64.56 4.77 64.54 4.98C64.54 4.98 64.52 5.16 64.48 5.46C64.41 6.09 64.67 6.11 64.87 5.99C65.16 5.81 65.33 5.46 65.49 5.14C65.6 5.42 65.73 5.65 65.84 5.99C66.63 8.32 63.64 8.09 62.45 8.14C61.35 8.18 61.24 9.17 61.13 9.93C65.22 9.98 67.07 6.82 66.24 4.91ZM60.64 6.69C60.62 6.96 60.45 7.26 60.29 7.26C60.14 7.26 60.03 7.03 60.07 6.71C60.12 6.43 60.25 6.18 60.4 6.18C60.56 6.18 60.67 6.41 60.64 6.69ZM62.8 5.95C62.78 5.88 62.78 5.81 62.78 5.72C62.8 5.44 62.93 5.14 63.11 5.1C63.18 5.07 63.24 5.1 63.24 5.21C63.24 5.46 63 5.76 62.8 5.95ZM65.8 4.01C65.77 3.99 65.77 3.97 65.77 3.94C65.44 3.11 65.88 3 65.93 3.34C65.93 3.53 65.88 3.78 65.8 4.01ZM62.23 1.64C62.16 2.17 62.12 3.27 61.13 3.44C59.5 3.71 57.32 4.45 56.97 6.11C56.97 6.13 56.9 6.13 56.9 6.13C56.86 3.53 59.08 1.64 62.23 1.64Z" fill="#FF0000" fill-opacity="1.000000" fill-rule="nonzero"/>
	</g>
</svg>
