<svg width="110.000000" height="31.000000" viewBox="0 0 110 31" fill="none" xmlns="http://www.w3.org/2000/svg" xmlns:xlink="http://www.w3.org/1999/xlink">
	<desc>
			Created with Pixso.
	</desc>
	<defs/>
	<rect id="Frame 225" width="109.411766" height="31.407408" transform="translate(-0.411743 -0.703613)" fill="#FFFFFF" fill-opacity="0"/>
	<path id="Vector" d="M20.31 3.44C22.12 4.57 24.34 7.61 25.11 9.86C26.01 12.38 25.15 14.86 23.03 16.68C19.54 19.63 17.32 21.67 15.69 23.54C14.43 25.01 12.84 26.88 12.98 30.7C9.63 26.84 9 20.89 12.62 17.03C16.51 12.86 17.23 11.99 18.68 10.17C20.04 8.43 20.54 5.96 20.31 3.44Z" fill="#558EC0" fill-opacity="1.000000" fill-rule="evenodd"/>
	<path id="Vector" d="M5.17 22.4C-4.23 14.39 -1.66 3.25 12.1 0.09C13.57 -0.26 14.21 -0.4 14.95 -0.71C15.72 0.85 15.82 2.05 13.89 3.34C9.07 6.51 1.78 10.82 5.17 22.4Z" fill="#558EC0" fill-opacity="1.000000" fill-rule="evenodd"/>
	<path id="Vector" d="M39.54 24.38C38.77 24.69 38.38 24.77 37.22 24.77C32.65 24.77 29 21.31 29 17.07C29 12.82 32.7 9.37 37.22 9.37C38 9.37 38.77 9.45 39.58 9.72L39.58 13.52C38.86 13.13 38.14 12.95 37.22 12.95C34.72 12.95 32.7 14.79 32.7 17.07C32.7 19.35 34.72 21.18 37.22 21.18C38.28 21.18 38.81 21.01 39.49 20.66L39.54 24.38Z" fill="#053D5B" fill-opacity="1.000000" fill-rule="evenodd"/>
	<path id="Vector" d="M91.35 17.07C91.35 21.31 87.77 24.77 83.41 24.77C79 24.77 75.47 21.31 75.47 17.07C75.47 12.82 79.04 9.37 83.41 9.37C87.77 9.37 91.35 12.82 91.35 17.07ZM83.36 12.95C80.95 12.95 79 14.79 79 17.07C79 19.35 80.95 21.18 83.36 21.18C85.78 21.18 87.73 19.35 87.73 17.07C87.73 14.79 85.78 12.95 83.36 12.95Z" fill="#053D5B" fill-opacity="1.000000" fill-rule="evenodd"/>
	<path id="Vector" d="M57.75 24.73L53.7 24.73L53.7 15.32C53.7 12.16 56.45 9.37 59.88 9.37C63.3 9.37 66.05 12.16 66.05 15.32L66.05 24.77L62 24.77L62 15.32C62 13.94 61.04 13.1 59.83 13.1C58.62 13.1 57.66 14.07 57.66 15.32L57.75 24.73Z" fill="#053D5B" fill-opacity="1.000000" fill-rule="evenodd"/>
	<path id="Vector" d="M96.38 24.73L92.52 24.73L92.52 15.32C92.52 12.16 95.14 9.37 98.41 9.37C101.67 9.37 104.29 12.16 104.29 15.32L104.29 24.77L100.43 24.77L100.43 15.32C100.43 13.98 99.51 13.1 98.36 13.1C97.21 13.1 96.29 14.07 96.29 15.32L96.38 24.73Z" fill="#053D5B" fill-opacity="1.000000" fill-rule="evenodd"/>
	<path id="Vector" d="M44.62 20.73L44.62 24.73L40.76 24.73L40.76 15.32C40.76 12.16 43.38 9.37 46.64 9.37C49.9 9.37 52.52 12.16 52.52 15.32L52.52 24.77L48.66 24.77L48.66 20.69L44.62 20.69L44.62 20.73ZM48.71 17.22L48.71 15.36C48.71 14.03 47.79 13.14 46.64 13.14C45.59 13.14 44.57 14.12 44.57 15.36L44.57 17.27L48.71 17.27L48.71 17.22Z" fill="#053D5B" fill-opacity="1.000000" fill-rule="evenodd"/>
	<path id="Vector" d="M72.64 15.04L73.85 17.19C75.95 20.78 73.8 25.8 67.23 24.59L67.23 21.05C69.93 22.03 71.43 20.64 70.26 18.45C70.26 18.45 69.42 16.97 68.77 15.85C67.18 13.16 69.19 8.58 74.88 9.48L74.88 13.11C73.43 12.08 71.52 13.11 72.64 15.04Z" fill="#053D5B" fill-opacity="1.000000" fill-rule="evenodd"/>
	<path id="Vector" d="M109 11.44C109 11.88 108.79 12.22 108.48 12.49C108.17 12.75 107.7 12.92 107.23 12.92C106.71 12.92 106.3 12.75 105.99 12.49C105.67 12.22 105.47 11.83 105.47 11.44C105.47 11 105.67 10.66 105.99 10.39C106.3 10.13 106.76 9.96 107.23 9.96C107.7 9.96 108.17 10.13 108.48 10.39C108.79 10.66 109 11 109 11.44ZM108.32 12.4C108.63 12.14 108.79 11.83 108.79 11.44C108.79 11.09 108.63 10.74 108.32 10.48C108.01 10.22 107.65 10.09 107.18 10.09C106.71 10.09 106.35 10.22 106.04 10.48C105.73 10.74 105.57 11.05 105.57 11.44C105.57 11.83 105.73 12.14 106.04 12.4C106.35 12.66 106.71 12.79 107.18 12.79C107.65 12.79 108.01 12.62 108.32 12.4Z" fill="#053D5B" fill-opacity="1.000000" fill-rule="nonzero"/>
	<path id="Vector" d="M106.92 10.78L107.3 10.78C107.44 10.78 107.54 10.83 107.54 11.07C107.54 11.25 107.47 11.35 107.3 11.35L106.92 11.35L106.92 10.78ZM106.68 12.33L106.92 12.33L106.92 11.58L107.27 11.58C107.47 11.58 107.54 11.72 107.54 12.05C107.54 12.14 107.54 12.23 107.58 12.33L107.82 12.33C107.78 12.23 107.75 12.05 107.75 11.86C107.75 11.58 107.65 11.49 107.54 11.49C107.58 11.49 107.75 11.39 107.75 11.02C107.75 10.69 107.61 10.55 107.3 10.55L106.64 10.55L106.64 12.33L106.68 12.33Z" fill="#053D5B" fill-opacity="1.000000" fill-rule="evenodd"/>
</svg>
